<svg xmlns="http://www.w3.org/2000/svg" width="518" height="518" viewBox="0 0 518 518">
  <g fill="none" fill-rule="evenodd" transform="translate(10 15)">
    <path fill="#63789D" d="M0,150 L105,150 C198.336123,150 274,225.663877 274,319 C274,412.336123 198.336123,488 105,488 L0,488 L0,488 L0,150 Z" transform="matrix(-1 0 0 1 274 0)"/>
    <path fill="#434B58" d="M304,0 L468,0 C484.568542,-3.04359188e-15 498,13.4314575 498,30 L498,458 C498,474.568542 484.568542,488 468,488 L274,488 L274,488 L274,30 C274,13.4314575 287.431458,3.04359188e-15 304,0 Z"/>
    <path fill="#FFF" d="M266.804316,246.191721 L210.79296,344.748385 C208.609899,348.589664 209.95415,353.473357 213.795429,355.656418 C215.000291,356.34116 216.362367,356.701167 217.748211,356.701167 L238.000358,356.701167 C242.418636,356.701167 246.000358,360.282889 246.000358,364.701167 L246.000358,488 L246.000358,488 L302.159701,488 L302.159701,364.701167 C302.159701,360.282889 305.741423,356.701167 310.159701,356.701167 L330.199733,356.701167 C334.618011,356.701167 338.199733,353.119445 338.199733,348.701167 C338.199733,347.30642 337.835089,345.935908 337.141972,344.725575 L280.701804,246.168911 C278.506146,242.334819 273.618067,241.006606 269.783974,243.202265 C268.54105,243.914047 267.512014,244.946466 266.804316,246.191721 Z"/>
  </g>
</svg>
